<mxfile host="app.diagrams.net" modified="2024-09-24T18:04:24.338Z" agent="Mozilla/5.0 (X11; Linux x86_64) AppleWebKit/537.36 (KHTML, like Gecko) Chrome/129.0.0.0 Safari/537.36" etag="ayUJPfjleLBd6wvQuEcO" version="23.1.4" type="github">
  <diagram name="Page-1" id="FVzhxPrkgl9InoomUSJk">
    <mxGraphModel dx="879" dy="537" grid="1" gridSize="10" guides="1" tooltips="1" connect="1" arrows="1" fold="1" page="1" pageScale="1" pageWidth="827" pageHeight="1169" math="0" shadow="0">
      <root>
        <mxCell id="0" />
        <mxCell id="1" parent="0" />
        <mxCell id="C7w46rlkDTjLjgx2qa4Q-1" value="" style="rounded=0;whiteSpace=wrap;html=1;fillColor=#dae8fc;strokeColor=#6c8ebf;" vertex="1" parent="1">
          <mxGeometry x="131" y="210" width="250" height="40" as="geometry" />
        </mxCell>
        <mxCell id="C7w46rlkDTjLjgx2qa4Q-2" value="" style="shape=table;startSize=0;container=1;collapsible=0;childLayout=tableLayout;fillColor=#d5e8d4;strokeColor=#82b366;" vertex="1" parent="1">
          <mxGeometry x="421" y="210" width="290" height="40" as="geometry" />
        </mxCell>
        <mxCell id="C7w46rlkDTjLjgx2qa4Q-3" value="" style="shape=tableRow;horizontal=0;startSize=0;swimlaneHead=0;swimlaneBody=0;strokeColor=inherit;top=0;left=0;bottom=0;right=0;collapsible=0;dropTarget=0;fillColor=none;points=[[0,0.5],[1,0.5]];portConstraint=eastwest;" vertex="1" parent="C7w46rlkDTjLjgx2qa4Q-2">
          <mxGeometry width="290" height="40" as="geometry" />
        </mxCell>
        <mxCell id="C7w46rlkDTjLjgx2qa4Q-4" value="" style="shape=partialRectangle;html=1;whiteSpace=wrap;connectable=0;strokeColor=inherit;overflow=hidden;fillColor=none;top=0;left=0;bottom=0;right=0;pointerEvents=1;" vertex="1" parent="C7w46rlkDTjLjgx2qa4Q-3">
          <mxGeometry width="96" height="40" as="geometry">
            <mxRectangle width="96" height="40" as="alternateBounds" />
          </mxGeometry>
        </mxCell>
        <mxCell id="C7w46rlkDTjLjgx2qa4Q-5" value="" style="shape=partialRectangle;html=1;whiteSpace=wrap;connectable=0;strokeColor=inherit;overflow=hidden;fillColor=none;top=0;left=0;bottom=0;right=0;pointerEvents=1;" vertex="1" parent="C7w46rlkDTjLjgx2qa4Q-3">
          <mxGeometry x="96" width="98" height="40" as="geometry">
            <mxRectangle width="98" height="40" as="alternateBounds" />
          </mxGeometry>
        </mxCell>
        <mxCell id="C7w46rlkDTjLjgx2qa4Q-6" value="" style="shape=partialRectangle;html=1;whiteSpace=wrap;connectable=0;strokeColor=inherit;overflow=hidden;fillColor=none;top=0;left=0;bottom=0;right=0;pointerEvents=1;" vertex="1" parent="C7w46rlkDTjLjgx2qa4Q-3">
          <mxGeometry x="194" width="96" height="40" as="geometry">
            <mxRectangle width="96" height="40" as="alternateBounds" />
          </mxGeometry>
        </mxCell>
        <mxCell id="C7w46rlkDTjLjgx2qa4Q-7" value="&lt;font style=&quot;font-size: 15px;&quot;&gt;H1&lt;br&gt;Old Space&lt;/font&gt;" style="text;html=1;align=center;verticalAlign=middle;whiteSpace=wrap;rounded=0;" vertex="1" parent="1">
          <mxGeometry x="50" y="210" width="81" height="40" as="geometry" />
        </mxCell>
        <mxCell id="C7w46rlkDTjLjgx2qa4Q-8" value="&lt;span style=&quot;font-size: 15px;&quot;&gt;H2&lt;/span&gt;" style="text;html=1;align=center;verticalAlign=middle;whiteSpace=wrap;rounded=0;" vertex="1" parent="1">
          <mxGeometry x="711" y="210" width="30" height="40" as="geometry" />
        </mxCell>
        <mxCell id="C7w46rlkDTjLjgx2qa4Q-9" value="" style="ellipse;whiteSpace=wrap;html=1;aspect=fixed;fillColor=#f5f5f5;fontColor=#333333;strokeColor=#666666;" vertex="1" parent="1">
          <mxGeometry x="131" y="215" width="30" height="30" as="geometry" />
        </mxCell>
        <mxCell id="C7w46rlkDTjLjgx2qa4Q-10" value="" style="ellipse;whiteSpace=wrap;html=1;aspect=fixed;fillColor=#f5f5f5;fontColor=#333333;strokeColor=#666666;" vertex="1" parent="1">
          <mxGeometry x="161" y="215" width="30" height="30" as="geometry" />
        </mxCell>
        <mxCell id="C7w46rlkDTjLjgx2qa4Q-11" value="" style="ellipse;whiteSpace=wrap;html=1;aspect=fixed;fillColor=#f5f5f5;fontColor=#333333;strokeColor=#666666;" vertex="1" parent="1">
          <mxGeometry x="191" y="215" width="30" height="30" as="geometry" />
        </mxCell>
        <mxCell id="C7w46rlkDTjLjgx2qa4Q-12" value="" style="ellipse;whiteSpace=wrap;html=1;aspect=fixed;fillColor=#f5f5f5;fontColor=#333333;strokeColor=#666666;" vertex="1" parent="1">
          <mxGeometry x="421" y="215" width="30" height="30" as="geometry" />
        </mxCell>
        <mxCell id="C7w46rlkDTjLjgx2qa4Q-13" value="" style="ellipse;whiteSpace=wrap;html=1;aspect=fixed;fillColor=#f5f5f5;fontColor=#333333;strokeColor=#666666;" vertex="1" parent="1">
          <mxGeometry x="451" y="215" width="30" height="30" as="geometry" />
        </mxCell>
        <mxCell id="C7w46rlkDTjLjgx2qa4Q-14" value="" style="ellipse;whiteSpace=wrap;html=1;aspect=fixed;fillColor=#f5f5f5;fontColor=#333333;strokeColor=#666666;" vertex="1" parent="1">
          <mxGeometry x="481" y="215" width="30" height="30" as="geometry" />
        </mxCell>
        <mxCell id="C7w46rlkDTjLjgx2qa4Q-15" value="" style="ellipse;whiteSpace=wrap;html=1;aspect=fixed;fillColor=#f5f5f5;fontColor=#333333;strokeColor=#666666;" vertex="1" parent="1">
          <mxGeometry x="251" y="215" width="30" height="30" as="geometry" />
        </mxCell>
        <mxCell id="C7w46rlkDTjLjgx2qa4Q-16" value="" style="ellipse;whiteSpace=wrap;html=1;aspect=fixed;fillColor=#424242;fontColor=#333333;strokeColor=#666666;" vertex="1" parent="1">
          <mxGeometry x="221" y="215" width="30" height="30" as="geometry" />
        </mxCell>
        <mxCell id="C7w46rlkDTjLjgx2qa4Q-17" value="" style="curved=1;endArrow=classic;html=1;rounded=0;exitX=0.5;exitY=0;exitDx=0;exitDy=0;entryX=0.5;entryY=0;entryDx=0;entryDy=0;" edge="1" parent="1" source="C7w46rlkDTjLjgx2qa4Q-10" target="C7w46rlkDTjLjgx2qa4Q-15">
          <mxGeometry width="50" height="50" relative="1" as="geometry">
            <mxPoint x="381" y="320" as="sourcePoint" />
            <mxPoint x="431" y="270" as="targetPoint" />
            <Array as="points">
              <mxPoint x="211" y="140" />
            </Array>
          </mxGeometry>
        </mxCell>
        <mxCell id="C7w46rlkDTjLjgx2qa4Q-18" value="" style="curved=1;endArrow=classic;html=1;rounded=0;exitX=0.5;exitY=0;exitDx=0;exitDy=0;entryX=0.5;entryY=0;entryDx=0;entryDy=0;" edge="1" parent="1" source="C7w46rlkDTjLjgx2qa4Q-11" target="C7w46rlkDTjLjgx2qa4Q-12">
          <mxGeometry width="50" height="50" relative="1" as="geometry">
            <mxPoint x="281" y="220" as="sourcePoint" />
            <mxPoint x="481" y="200" as="targetPoint" />
            <Array as="points">
              <mxPoint x="401" y="110" />
            </Array>
          </mxGeometry>
        </mxCell>
        <mxCell id="C7w46rlkDTjLjgx2qa4Q-19" value="" style="curved=1;endArrow=classic;html=1;rounded=0;exitX=0.5;exitY=0;exitDx=0;exitDy=0;entryX=0.5;entryY=0;entryDx=0;entryDy=0;" edge="1" parent="1" source="C7w46rlkDTjLjgx2qa4Q-11" target="C7w46rlkDTjLjgx2qa4Q-13">
          <mxGeometry width="50" height="50" relative="1" as="geometry">
            <mxPoint x="321" y="220" as="sourcePoint" />
            <mxPoint x="457" y="220" as="targetPoint" />
            <Array as="points">
              <mxPoint x="401" y="110" />
            </Array>
          </mxGeometry>
        </mxCell>
        <mxCell id="C7w46rlkDTjLjgx2qa4Q-20" value="" style="curved=1;endArrow=classic;html=1;rounded=0;exitX=0.5;exitY=0;exitDx=0;exitDy=0;entryX=0.5;entryY=0;entryDx=0;entryDy=0;" edge="1" parent="1" source="C7w46rlkDTjLjgx2qa4Q-11" target="C7w46rlkDTjLjgx2qa4Q-14">
          <mxGeometry width="50" height="50" relative="1" as="geometry">
            <mxPoint x="321" y="220" as="sourcePoint" />
            <mxPoint x="502" y="220" as="targetPoint" />
            <Array as="points">
              <mxPoint x="401" y="110" />
            </Array>
          </mxGeometry>
        </mxCell>
        <mxCell id="C7w46rlkDTjLjgx2qa4Q-21" value="" style="endArrow=classic;html=1;rounded=0;exitX=0.5;exitY=0;exitDx=0;exitDy=0;entryX=1;entryY=0.5;entryDx=0;entryDy=0;" edge="1" parent="1" source="C7w46rlkDTjLjgx2qa4Q-22" target="C7w46rlkDTjLjgx2qa4Q-15">
          <mxGeometry width="50" height="50" relative="1" as="geometry">
            <mxPoint x="331" y="270" as="sourcePoint" />
            <mxPoint x="321" y="280" as="targetPoint" />
          </mxGeometry>
        </mxCell>
        <mxCell id="C7w46rlkDTjLjgx2qa4Q-22" value="&lt;b&gt;&lt;font style=&quot;font-size: 13px;&quot;&gt;Top Pointer&lt;/font&gt;&lt;/b&gt;" style="text;html=1;align=center;verticalAlign=middle;whiteSpace=wrap;rounded=0;" vertex="1" parent="1">
          <mxGeometry x="251" y="300" width="60" height="30" as="geometry" />
        </mxCell>
        <mxCell id="C7w46rlkDTjLjgx2qa4Q-23" value="" style="endArrow=classic;html=1;rounded=0;entryX=1;entryY=0.5;entryDx=0;entryDy=0;exitX=0.5;exitY=0;exitDx=0;exitDy=0;" edge="1" parent="1" source="C7w46rlkDTjLjgx2qa4Q-24">
          <mxGeometry width="50" height="50" relative="1" as="geometry">
            <mxPoint x="221" y="270" as="sourcePoint" />
            <mxPoint x="221" y="230" as="targetPoint" />
          </mxGeometry>
        </mxCell>
        <mxCell id="C7w46rlkDTjLjgx2qa4Q-24" value="&lt;b&gt;&lt;font style=&quot;font-size: 13px;&quot;&gt;New Top Pointer&lt;/font&gt;&lt;/b&gt;" style="text;html=1;align=center;verticalAlign=middle;whiteSpace=wrap;rounded=0;" vertex="1" parent="1">
          <mxGeometry x="191" y="300" width="60" height="30" as="geometry" />
        </mxCell>
        <mxCell id="C7w46rlkDTjLjgx2qa4Q-25" value="" style="ellipse;whiteSpace=wrap;html=1;aspect=fixed;fillColor=#f5f5f5;fontColor=#333333;strokeColor=#666666;" vertex="1" parent="1">
          <mxGeometry x="518" y="215" width="30" height="30" as="geometry" />
        </mxCell>
        <mxCell id="C7w46rlkDTjLjgx2qa4Q-26" value="" style="curved=1;endArrow=classic;html=1;rounded=0;exitX=0.5;exitY=0;exitDx=0;exitDy=0;entryX=0.5;entryY=0;entryDx=0;entryDy=0;" edge="1" parent="1" source="C7w46rlkDTjLjgx2qa4Q-11" target="C7w46rlkDTjLjgx2qa4Q-25">
          <mxGeometry width="50" height="50" relative="1" as="geometry">
            <mxPoint x="276" y="225" as="sourcePoint" />
            <mxPoint x="506" y="225" as="targetPoint" />
            <Array as="points">
              <mxPoint x="391" y="110" />
            </Array>
          </mxGeometry>
        </mxCell>
        <mxCell id="C7w46rlkDTjLjgx2qa4Q-27" value="" style="shape=curlyBracket;whiteSpace=wrap;html=1;rounded=1;flipH=1;labelPosition=right;verticalLabelPosition=middle;align=left;verticalAlign=middle;rotation=90;" vertex="1" parent="1">
          <mxGeometry x="241" y="230" width="20" height="60" as="geometry" />
        </mxCell>
        <mxCell id="C7w46rlkDTjLjgx2qa4Q-28" value="&lt;b&gt;&lt;font style=&quot;font-size: 13px;&quot;&gt;Diff&lt;/font&gt;&lt;/b&gt;" style="text;html=1;align=center;verticalAlign=middle;whiteSpace=wrap;rounded=0;" vertex="1" parent="1">
          <mxGeometry x="221" y="270" width="60" height="30" as="geometry" />
        </mxCell>
      </root>
    </mxGraphModel>
  </diagram>
</mxfile>
